<svg width="24" height="24" viewBox="0 0 24 24" fill="none" xmlns="http://www.w3.org/2000/svg">
<path d="M13.8811 11.6444L13.5264 11.9983L13.8811 12.3523L20.6952 19.1515L20.6963 19.1525C20.798 19.2534 20.8787 19.3734 20.9337 19.5056C20.9888 19.6378 21.0171 19.7796 21.0171 19.9228C21.0171 20.066 20.9888 20.2079 20.9337 20.3401C20.8787 20.4723 20.798 20.5923 20.6963 20.6931L20.6934 20.696C20.5925 20.7977 20.4726 20.8784 20.3404 20.9335C20.2082 20.9886 20.0665 21.0169 19.9233 21.0169C19.7801 21.0169 19.6383 20.9886 19.5062 20.9335C19.374 20.8784 19.254 20.7977 19.1532 20.696L19.1522 20.695L12.3539 13.8799L11.9999 13.525L11.6459 13.8799L4.84766 20.695L4.84662 20.696C4.74578 20.7977 4.62582 20.8784 4.49365 20.9335C4.36148 20.9886 4.21971 21.0169 4.07653 21.0169C3.93335 21.0169 3.79158 20.9886 3.65941 20.9335C3.52724 20.8784 3.40728 20.7977 3.30644 20.696L3.30354 20.6931C3.20187 20.5923 3.12117 20.4723 3.0661 20.3401C3.01102 20.2079 2.98267 20.066 2.98267 19.9228C2.98267 19.7796 3.01102 19.6378 3.06609 19.5056C3.12117 19.3734 3.20187 19.2534 3.30354 19.1525L3.30458 19.1515L10.1187 12.3523L10.4734 11.9983L10.1187 11.6444L3.30499 4.84556C3.30491 4.84548 3.30482 4.84539 3.30474 4.84531C3.10026 4.64066 2.98537 4.36317 2.98537 4.07381C2.98537 3.78433 3.10035 3.50673 3.30499 3.30206C3.50963 3.09739 3.78716 2.98242 4.07653 2.98242C4.36581 2.98242 4.64326 3.09732 4.84788 3.30187C4.84795 3.30193 4.84801 3.30199 4.84807 3.30206L11.6459 10.1167L11.9999 10.4716L12.3539 10.1167L19.1517 3.30206L19.1522 3.30164C19.3568 3.09724 19.6341 2.98242 19.9233 2.98242C20.2127 2.98242 20.4902 3.09739 20.6948 3.30206C20.8995 3.50673 21.0144 3.78433 21.0144 4.07381C21.0144 4.36309 20.8996 4.64052 20.6952 4.84515C20.6951 4.84528 20.695 4.84542 20.6948 4.84556L13.8811 11.6444Z" fill="#292929" stroke="#292929"/>
</svg>
