<svg width="89" height="56" viewBox="0 0 89 56" fill="none" xmlns="http://www.w3.org/2000/svg">
<path d="M30.9418 22.154V38.8547H35.6519V26.8813H39.5888V22.154H30.9418Z" fill="white"/>
<path d="M19.0942 21.5341C14.3364 21.5341 10.4802 25.4037 10.4802 30.1778C10.4802 34.9519 14.3364 38.8215 19.0942 38.8215C23.8519 38.8215 27.7082 34.9519 27.7082 30.1778C27.7082 25.4037 23.8509 21.5341 19.0942 21.5341ZM19.0942 34.5426C16.692 34.5426 14.7444 32.5883 14.7444 30.1778C14.7444 27.7674 16.692 25.8131 19.0942 25.8131C21.4963 25.8131 23.4439 27.7674 23.4439 30.1778C23.4439 32.5883 21.4963 34.5426 19.0942 34.5426Z" fill="white"/>
<path d="M4.92593 17.377H0.214844V38.8547H4.92593V26.8813H8.4335V22.154H4.92593V17.377Z" fill="white"/>
<path d="M49.5356 21.5341C44.7778 21.5341 40.9216 25.4037 40.9216 30.1778C40.9216 34.9519 44.7778 38.8215 49.5356 38.8215C54.2933 38.8215 58.1496 34.9519 58.1496 30.1778C58.1486 25.4037 54.2923 21.5341 49.5356 21.5341ZM49.5356 34.5426C47.1334 34.5426 45.1858 32.5883 45.1858 30.1778C45.1858 27.7674 47.1334 25.8131 49.5356 25.8131C51.9377 25.8131 53.8853 27.7674 53.8853 30.1778C53.8853 32.5883 51.9377 34.5426 49.5356 34.5426Z" fill="white"/>
<path d="M80.2023 21.5341C75.4456 21.5341 71.5883 25.4037 71.5883 30.1778C71.5883 34.9519 75.4446 38.8215 80.2023 38.8215C84.96 38.8215 88.8163 34.9519 88.8163 30.1778C88.8163 25.4037 84.96 21.5341 80.2023 21.5341ZM80.2023 34.5426C77.8001 34.5426 75.8526 32.5883 75.8526 30.1778C75.8526 27.7674 77.8001 25.8131 80.2023 25.8131C82.6045 25.8131 84.552 27.7674 84.552 30.1778C84.552 32.5883 82.6045 34.5426 80.2023 34.5426Z" fill="white"/>
<path d="M65.8991 17.4384H61.1889V38.8547H69.0929V34.1273H65.8991V26.8667H69.0929V22.1394H65.8991V17.4384Z" fill="white"/>
</svg>
