<svg width="24" height="24" viewBox="0 0 24 24" fill="none" xmlns="http://www.w3.org/2000/svg">
<path d="M0 12C0 5.37258 5.37258 0 12 0C18.6274 0 24 5.37258 24 12C24 18.6274 18.6274 24 12 24C5.37258 24 0 18.6274 0 12Z" fill="#373737"/>
<path d="M10.6322 12.745C11.4749 12.0516 12.1362 11.3423 12.6162 10.617C13.0962 9.88098 13.3362 9.10764 13.3362 8.29698C13.3362 7.84898 13.2349 7.50231 13.0322 7.25698C12.8296 7.00098 12.5362 6.87298 12.1522 6.87298C11.8109 6.87298 11.5442 6.96898 11.3522 7.16098C11.1602 7.35298 11.0642 7.61431 11.0642 7.94498C11.0642 8.21164 11.1122 8.48898 11.2082 8.77698L9.22424 9.20898C9.07491 8.78231 9.00024 8.36098 9.00024 7.94498C9.00024 7.03831 9.27758 6.32364 9.83224 5.80098C10.3869 5.26764 11.1709 5.00098 12.1842 5.00098C13.2296 5.00098 14.0402 5.28898 14.6162 5.86498C15.1922 6.43031 15.4802 7.23031 15.4802 8.26498C15.4802 9.23564 15.2296 10.1156 14.7282 10.905C14.2376 11.6943 13.5229 12.4623 12.5842 13.209V14.777H10.6322V12.745ZM10.5522 15.977H12.6962V18.105H10.5522V15.977Z" fill="white"/>
</svg>
