<svg width="32" height="32" viewBox="0 0 32 32" fill="none" xmlns="http://www.w3.org/2000/svg">
<path d="M16.0001 0C7.16358 0 0 7.16358 0 16.0001C0 23.9254 5.76835 30.4889 13.3316 31.7599V19.3381H9.47191V14.8681H13.3316V11.572C13.3316 7.74763 15.6674 5.66356 19.0795 5.66356C20.7137 5.66356 22.1181 5.78534 22.5258 5.83897V9.83646L20.1593 9.83761C18.304 9.83761 17.9464 10.719 17.9464 12.0129V14.8658H22.3731L21.7957 19.3359H17.9464V31.8668C25.8627 30.9033 32 24.1726 32 15.9955C32 7.16358 24.8364 0 16.0001 0Z" fill="white"/>
</svg>
