<svg width="32" height="33" viewBox="0 0 32 33" fill="none" xmlns="http://www.w3.org/2000/svg">
<path d="M31.8969 9.46068C31.879 8.11483 31.6271 6.78236 31.1524 5.52288C30.7407 4.46051 30.112 3.49569 29.3064 2.69006C28.5008 1.88443 27.5359 1.25571 26.4736 0.84407C25.2303 0.377356 23.9168 0.124996 22.5891 0.0977345C20.8796 0.021324 20.3376 0 15.9982 0C11.6588 0 11.1026 1.19156e-07 9.4056 0.0977345C8.07847 0.125196 6.76561 0.377553 5.52288 0.84407C4.46034 1.25542 3.49537 1.88404 2.68971 2.68971C1.88404 3.49537 1.25542 4.46034 0.844069 5.52288C0.376421 6.76523 0.124608 8.07838 0.0995113 9.4056C0.0231008 11.1168 0 11.6588 0 15.9982C0 20.3376 -1.32396e-08 20.892 0.0995113 22.5908C0.126166 23.92 0.376721 25.2315 0.844069 26.4771C1.25611 27.5393 1.8852 28.5039 2.69113 29.3092C3.49707 30.1146 4.46213 30.7429 5.52466 31.1542C6.76399 31.6396 8.07707 31.91 9.40738 31.9538C11.1186 32.0302 11.6606 32.0533 16 32.0533C20.3394 32.0533 20.8956 32.0533 22.5926 31.9538C23.9203 31.9277 25.2339 31.6759 26.4771 31.2092C27.5392 30.7971 28.5038 30.1682 29.3094 29.3627C30.1149 28.5571 30.7438 27.5925 31.1559 26.5304C31.6233 25.2865 31.8738 23.9751 31.9005 22.6442C31.9769 20.9347 32 20.3927 32 16.0515C31.9964 11.7121 31.9964 11.1613 31.8969 9.46068ZM15.9876 24.2044C11.4491 24.2044 7.77254 20.5278 7.77254 15.9893C7.77254 11.4509 11.4491 7.77432 15.9876 7.77432C18.1663 7.77432 20.2558 8.63983 21.7965 10.1804C23.3371 11.7211 24.2026 13.8106 24.2026 15.9893C24.2026 18.1681 23.3371 20.2576 21.7965 21.7982C20.2558 23.3388 18.1663 24.2044 15.9876 24.2044ZM24.5295 9.38605C24.2779 9.38628 24.0287 9.3369 23.7962 9.24071C23.5637 9.14453 23.3524 9.00343 23.1745 8.82551C22.9966 8.64758 22.8555 8.43632 22.7593 8.2038C22.6631 7.97128 22.6137 7.72208 22.6139 7.47046C22.6139 7.21901 22.6635 6.97003 22.7597 6.73773C22.8559 6.50543 22.997 6.29435 23.1748 6.11656C23.3526 5.93876 23.5636 5.79772 23.7959 5.7015C24.0282 5.60528 24.2772 5.55575 24.5287 5.55575C24.7801 5.55575 25.0291 5.60528 25.2614 5.7015C25.4937 5.79772 25.7048 5.93876 25.8826 6.11656C26.0604 6.29435 26.2014 6.50543 26.2976 6.73773C26.3938 6.97003 26.4434 7.21901 26.4434 7.47046C26.4434 8.52954 25.5869 9.38605 24.5295 9.38605Z" fill="white"/>
<path d="M15.9876 21.3256C18.9347 21.3256 21.3239 18.9365 21.3239 15.9893C21.3239 13.0422 18.9347 10.653 15.9876 10.653C13.0404 10.653 10.6513 13.0422 10.6513 15.9893C10.6513 18.9365 13.0404 21.3256 15.9876 21.3256Z" fill="white"/>
</svg>
