<svg width="32" height="32" viewBox="0 0 32 32" fill="none" xmlns="http://www.w3.org/2000/svg">
<path d="M32 5.75272C30.8232 6.27417 29.5591 6.6265 28.2301 6.78575C29.6013 5.96524 30.6272 4.67384 31.1164 3.15253C29.828 3.91777 28.418 4.45642 26.9476 4.74506C25.9588 3.68929 24.6491 2.98951 23.2218 2.75436C21.7945 2.51921 20.3296 2.76185 19.0543 3.44461C17.7791 4.12737 16.7649 5.21205 16.1693 6.53025C15.5737 7.84844 15.43 9.3264 15.7604 10.7347C13.1499 10.6036 10.5961 9.92508 8.26485 8.74316C5.93354 7.56125 3.87681 5.90234 2.22813 3.8741C1.66441 4.84653 1.34026 5.97399 1.34026 7.17473C1.33963 8.25567 1.60582 9.32005 2.11522 10.2734C2.62461 11.2268 3.36145 12.0397 4.26037 12.6401C3.21787 12.6069 2.19836 12.3252 1.28671 11.8184V11.903C1.2866 13.4191 1.81102 14.8885 2.77098 16.0619C3.73094 17.2353 5.06731 18.0405 6.55333 18.3408C5.58624 18.6025 4.57231 18.641 3.58813 18.4535C4.0074 19.758 4.82409 20.8987 5.92389 21.716C7.02368 22.5332 8.35151 22.9861 9.72148 23.0112C7.39587 24.8369 4.52376 25.8272 1.56716 25.8228C1.04343 25.823 0.520146 25.7924 0 25.7312C3.00111 27.6608 6.49462 28.6849 10.0625 28.6809C22.1404 28.6809 28.7431 18.6776 28.7431 10.0018C28.7431 9.71996 28.736 9.43527 28.7233 9.15341C30.0076 8.22463 31.1162 7.07452 31.9972 5.75695L32 5.75272V5.75272Z" fill="white"/>
</svg>
